<?xml version="1.0" standalone="no"?>
<!DOCTYPE svg PUBLIC "-//W3C//DTD SVG 20010904//EN"
 "http://www.w3.org/TR/2001/REC-SVG-20010904/DTD/svg10.dtd">
<svg version="1.0" xmlns="http://www.w3.org/2000/svg"
 width="1546px" height="2184px" viewBox="0 0 773.000000 1092.000000"
 preserveAspectRatio="xMidYMid meet">


<g transform="translate(0.000000,1092.000000) scale(0.100000,-0.100000)"
fill="#000000" stroke="none">
<path d="M3595 9829 c-224 -23 -473 -81 -695 -163 -128 -47 -345 -150 -300
-141 184 34 228 38 380 38 183 -1 316 -17 506 -63 823 -197 1756 -823 2364
-1586 188 -235 296 -403 425 -659 81 -159 94 -180 117 -183 38 -5 94 55 140
148 81 163 91 313 35 530 -49 190 -117 369 -211 555 -394 780 -1123 1327
-1983 1490 -220 42 -560 56 -778 34z"/>
<path d="M2735 9404 c-112 -20 -111 -19 -70 -55 49 -43 68 -84 68 -144 0 -59
-12 -85 -88 -190 -326 -455 -570 -1131 -665 -1845 -45 -342 -52 -799 -15
-1100 63 -523 223 -944 464 -1218 l38 -44 7 43 c9 58 40 105 89 137 39 26 45
27 136 22 53 -3 224 -5 381 -5 305 1 432 14 713 71 1258 255 2412 1024 2682
1787 15 43 26 80 23 83 -3 2 -17 0 -32 -6 -35 -13 -107 -13 -143 1 -52 19 -83
63 -167 234 -266 541 -712 1054 -1291 1486 -544 405 -1134 674 -1633 743 -139
20 -387 19 -497 0z"/>
<path d="M2360 9269 c-165 -15 -284 -75 -434 -219 -398 -384 -681 -901 -791
-1444 -69 -341 -74 -704 -14 -1046 74 -426 250 -832 516 -1189 119 -160 390
-429 555 -552 190 -141 205 -147 124 -55 -239 274 -406 685 -476 1171 -58 399
-54 897 10 1338 103 705 360 1389 693 1847 26 35 47 74 47 87 0 49 -93 74
-230 62z"/>
<path d="M6626 6858 c-56 -175 -173 -380 -321 -563 -94 -116 -312 -329 -442
-432 -825 -655 -2057 -1067 -3002 -1003 -103 7 -195 12 -205 12 -75 -3 -42
-134 70 -274 95 -120 223 -192 438 -248 854 -220 1753 -28 2449 522 121 96
335 309 431 428 360 450 564 981 609 1588 2 28 3 52 2 52 -2 0 -15 -37 -29
-82z"/>
<path d="M3145 3717 c-78 -20 -140 -54 -202 -111 -112 -102 -164 -230 -165
-401 0 -169 41 -284 138 -385 95 -99 208 -143 369 -143 99 0 154 12 230 50 79
39 193 162 169 182 -5 4 -40 31 -78 60 l-68 53 -29 -36 c-17 -19 -59 -49 -94
-67 -60 -29 -70 -31 -144 -27 -97 6 -154 35 -200 105 -47 70 -65 142 -58 233
8 124 54 209 140 256 46 26 62 29 137 29 99 0 144 -19 203 -84 l36 -40 75 57
c42 31 76 62 76 69 0 19 -74 107 -117 136 -75 52 -138 70 -258 73 -68 2 -129
-1 -160 -9z"/>
<path d="M4061 3714 c-86 -23 -167 -72 -230 -140 -97 -103 -141 -220 -141
-374 0 -206 96 -379 257 -462 87 -46 157 -62 263 -61 284 1 488 200 507 493
17 266 -129 482 -368 545 -69 19 -218 18 -288 -1z m235 -209 c64 -19 113 -60
149 -126 25 -47 30 -67 33 -149 2 -52 -1 -114 -7 -137 -17 -62 -70 -134 -124
-167 -62 -38 -173 -48 -243 -21 -143 55 -215 223 -169 399 44 167 194 251 361
201z"/>
<path d="M1080 3206 l0 -516 110 0 110 0 0 170 0 170 94 0 94 0 99 -170 98
-170 134 0 133 0 -15 23 c-8 12 -63 99 -122 192 l-108 169 24 15 c95 63 149
151 157 260 11 165 -76 289 -242 344 -53 18 -95 21 -313 25 l-253 4 0 -516z
m497 293 c53 -25 76 -66 77 -132 0 -54 -22 -91 -75 -122 -28 -16 -56 -21 -156
-24 l-123 -3 0 151 0 151 117 0 c98 0 124 -3 160 -21z"/>
<path d="M2000 3205 l0 -515 380 0 380 0 0 105 0 105 -265 0 -265 0 0 105 0
105 228 2 227 3 3 98 3 97 -231 0 -230 0 0 100 0 100 260 0 261 0 -3 103 -3
102 -372 3 -373 2 0 -515z"/>
<path d="M4800 3206 l0 -516 110 0 110 0 0 170 0 171 96 -3 96 -3 92 -158 c51
-86 97 -162 102 -167 7 -7 61 -10 137 -8 l126 3 -120 190 -121 190 24 14 c53
34 116 110 138 167 49 132 10 283 -97 370 -92 75 -146 87 -440 92 l-253 4 0
-516z m490 298 c56 -23 84 -65 85 -130 0 -60 -21 -97 -76 -129 -28 -16 -56
-21 -156 -24 l-123 -3 0 151 0 151 115 0 c82 0 126 -5 155 -16z"/>
<path d="M5720 3204 l0 -516 263 4 c234 4 269 7 328 26 218 72 343 251 343
492 -1 209 -89 362 -258 446 -104 51 -191 63 -453 64 l-223 0 0 -516z m521
280 c111 -33 179 -138 179 -279 0 -96 -24 -160 -80 -215 -64 -65 -117 -80
-272 -80 l-118 0 0 295 0 295 118 0 c80 0 136 -5 173 -16z"/>
<path d="M1622 2181 c-8 -5 -12 -17 -10 -27 3 -19 60 -19 2256 -22 2004 -2
2253 0 2258 13 4 8 1 22 -6 30 -11 13 -282 15 -2249 15 -1230 0 -2242 -4
-2249 -9z"/>
<path d="M2380 1621 c-49 -15 -89 -41 -115 -75 -92 -121 -86 -308 14 -407 94
-94 227 -94 322 1 108 108 108 312 0 419 -61 62 -144 85 -221 62z m136 -106
c62 -40 86 -193 44 -276 -55 -106 -192 -104 -240 4 -28 61 -27 161 3 217 40
76 125 100 193 55z"/>
<path d="M1155 1598 c-3 -13 -4 -133 -3 -268 l3 -245 165 0 165 0 0 40 0 40
-117 3 -118 3 -2 222 -3 222 -42 3 c-37 3 -43 0 -48 -20z"/>
<path d="M1566 1605 c-9 -25 -7 -498 3 -513 5 -8 23 -12 47 -10 l39 3 0 265 0
265 -41 3 c-31 2 -43 -1 -48 -13z"/>
<path d="M1744 1596 c-13 -55 -6 -61 83 -64 l83 -3 2 -222 3 -222 40 0 40 0 3
222 2 222 83 3 82 3 0 40 0 40 -207 3 -208 2 -6 -24z"/>
<path d="M2785 1607 c-3 -7 -4 -127 -3 -267 l3 -255 40 0 40 0 3 88 3 87 48 0
49 0 48 -87 49 -88 48 -3 c34 -2 47 1 47 10 0 7 -23 53 -51 103 l-50 89 32 30
c102 96 65 258 -69 296 -55 15 -231 13 -237 -3z m210 -81 c18 -8 38 -23 44
-34 12 -23 14 -71 5 -97 -10 -26 -59 -45 -119 -45 l-55 0 0 95 0 95 45 0 c25
0 61 -6 80 -14z"/>
<path d="M3365 1587 c-47 -112 -173 -493 -166 -500 5 -5 25 -7 46 -5 38 3 39
4 60 68 l22 65 100 3 100 3 24 -68 24 -68 43 -3 c38 -3 42 -1 42 20 -1 13 -40
133 -88 268 l-87 245 -53 3 c-51 3 -53 2 -67 -31z m100 -172 c15 -49 30 -96
32 -102 4 -10 -14 -13 -70 -13 l-75 0 36 110 c20 60 39 106 43 102 4 -4 19
-47 34 -97z"/>
<path d="M3745 1608 c-3 -7 -4 -128 -3 -268 l3 -255 165 0 c180 0 181 0 166
61 -6 24 -8 24 -126 24 l-120 0 -2 223 -3 222 -38 3 c-24 2 -39 -1 -42 -10z"/>
<path d="M4325 1608 c-3 -8 -4 -128 -3 -268 l3 -255 170 0 170 0 3 28 c6 51
-9 57 -139 57 l-119 0 0 70 0 69 108 3 107 3 3 34 c2 20 -2 37 -10 42 -7 5
-57 9 -110 9 l-98 0 0 65 0 64 123 3 122 3 0 40 0 40 -163 3 c-126 2 -164 0
-167 -10z"/>
<path d="M4874 1607 c-4 -11 69 -226 168 -500 10 -27 13 -28 67 -25 l56 3 87
245 c48 135 87 255 88 268 0 21 -4 23 -47 20 l-46 -3 -64 -200 c-36 -110 -68
-203 -72 -208 -4 -4 -36 82 -71 190 -35 109 -68 204 -73 211 -13 16 -86 16
-93 -1z"/>
<path d="M5513 1608 c-21 -27 -184 -511 -175 -520 5 -5 26 -8 46 -6 37 3 38 5
59 68 l22 65 101 3 100 3 18 -58 c24 -75 31 -83 77 -83 31 0 39 4 39 18 0 9
-40 130 -88 267 l-88 250 -51 3 c-32 2 -53 -2 -60 -10z m88 -185 c17 -54 34
-104 37 -110 3 -10 -15 -13 -71 -13 l-75 0 36 110 c20 61 37 110 38 110 1 0
17 -44 35 -97z"/>
<path d="M5881 1601 c-12 -21 -16 -458 -5 -498 6 -23 9 -23 170 -23 l164 0 6
24 c3 14 3 34 -1 45 -6 20 -14 21 -125 21 l-120 0 -2 223 -3 222 -37 3 c-28 2
-39 -1 -47 -17z"/>
<path d="M6295 1608 c-3 -8 -4 -128 -3 -268 l3 -255 170 0 170 0 3 28 c6 51
-9 57 -139 57 l-119 0 0 70 0 69 108 3 107 3 3 34 c2 20 -2 37 -10 42 -7 5
-57 9 -110 9 l-98 0 0 65 0 64 123 3 122 3 0 40 0 40 -163 3 c-126 2 -164 0
-167 -10z"/>
</g>
</svg>
