<?xml version="1.0" standalone="no"?>
<!DOCTYPE svg PUBLIC "-//W3C//DTD SVG 20010904//EN"
 "http://www.w3.org/TR/2001/REC-SVG-20010904/DTD/svg10.dtd">
<svg version="1.0" xmlns="http://www.w3.org/2000/svg"
 width="1546px" height="2184px" viewBox="0 0 773.000000 1092.000000"
 preserveAspectRatio="xMidYMid meet">

<g transform="translate(0.000000,844.000000) scale(0.100000,-0.100000)"
fill="#000000" stroke="none">
<path d="M3890 6994 c-227 -27 -483 -91 -689 -173 -124 -50 -295 -133 -256
-125 17 3 59 12 95 20 94 21 344 29 475 15 741 -79 1631 -558 2331 -1256 367
-365 616 -705 800 -1090 35 -73 70 -135 79 -138 43 -17 105 45 160 158 93 196
85 381 -34 726 -319 926 -1107 1621 -2066 1823 -264 55 -630 72 -895 40z"/>
<path d="M3140 6584 c-8 -1 -48 -8 -88 -15 l-74 -11 41 -41 c87 -85 85 -178
-6 -302 -357 -488 -613 -1214 -698 -1986 -22 -198 -30 -626 -16 -819 45 -593
214 -1089 469 -1375 45 -50 52 -53 52 -21 0 40 19 78 57 118 57 59 80 62 281
48 1022 -74 2309 378 3109 1092 263 235 466 514 557 766 14 40 26 77 26 82 0
5 -17 2 -37 -7 -24 -10 -56 -14 -90 -11 -88 8 -114 36 -218 244 -212 420 -506
803 -880 1145 -651 595 -1394 990 -2036 1084 -94 13 -401 20 -449 9z"/>
<path d="M2682 6439 c-188 -24 -320 -108 -521 -329 -405 -448 -648 -983 -717
-1580 -20 -175 -15 -545 10 -708 90 -595 345 -1114 751 -1531 143 -147 277
-262 430 -367 l99 -68 -73 84 c-295 341 -465 841 -511 1500 -29 428 15 943
120 1399 130 560 330 1036 604 1431 36 52 66 102 66 111 0 28 -35 49 -96 59
-66 11 -72 11 -162 -1z"/>
<path d="M11117 6294 c-241 -53 -413 -189 -517 -406 -56 -118 -81 -220 -87
-368 -16 -368 129 -645 411 -787 117 -59 199 -76 376 -77 177 -1 258 16 385
81 78 41 205 160 242 229 l22 40 -119 92 -120 92 -67 -68 c-106 -105 -222
-150 -364 -139 -107 9 -178 38 -248 102 -103 96 -154 223 -155 390 -1 166 46
298 138 390 81 80 171 115 301 115 138 0 221 -35 317 -131 l66 -67 121 93 121
93 -39 58 c-78 119 -191 204 -336 251 -69 22 -101 26 -230 29 -109 3 -169 -1
-218 -12z"/>
<path d="M12598 6300 c-289 -52 -518 -257 -614 -550 -27 -80 -28 -95 -29 -265
0 -211 14 -277 93 -429 36 -72 64 -109 132 -176 97 -97 180 -149 294 -185 299
-95 622 -35 831 156 107 98 194 247 236 404 31 115 31 334 1 457 -70 284 -263
490 -532 568 -58 17 -108 23 -220 26 -80 1 -166 -1 -192 -6z m335 -349 c116
-45 219 -172 252 -312 19 -83 19 -239 0 -313 -66 -253 -296 -394 -540 -331
-123 32 -231 121 -281 229 -70 153 -70 359 0 512 29 62 112 155 171 190 100
58 281 70 398 25z"/>
<path d="M7830 5486 l0 -806 175 0 175 0 0 265 0 266 152 -3 152 -3 150 -260
151 -260 208 -3 208 -2 -27 42 c-15 24 -101 159 -191 302 -90 142 -163 259
-161 260 2 1 26 16 53 34 107 67 193 185 219 302 68 300 -93 558 -401 642 -72
19 -109 22 -470 26 l-393 4 0 -806z m701 494 c119 -23 188 -83 209 -184 17
-83 -1 -147 -59 -206 -66 -69 -111 -80 -328 -80 l-173 0 0 240 0 240 149 0
c81 0 172 -5 202 -10z"/>
<path d="M9290 5485 l0 -805 595 0 595 0 0 160 0 160 -420 0 -420 0 0 170 0
170 360 0 360 0 0 155 0 155 -360 0 -360 0 0 160 0 160 410 0 410 0 0 160 0
160 -585 0 -585 0 0 -805z"/>
<path d="M13700 5486 l0 -806 170 0 170 0 2 263 3 262 147 3 146 3 19 -28 c11
-16 81 -135 157 -265 l138 -238 204 0 c192 0 204 1 195 18 -5 9 -90 145 -190
301 l-180 285 45 25 c102 59 199 186 230 305 18 68 18 208 -1 281 -46 177
-192 309 -402 367 -72 19 -109 21 -465 26 l-388 4 0 -806z m754 479 c73 -27
131 -89 146 -158 26 -116 -17 -214 -117 -263 -57 -28 -62 -29 -250 -32 l-193
-4 0 242 0 242 183 -4 c141 -4 193 -9 231 -23z"/>
<path d="M15150 5485 l0 -806 403 3 c378 4 407 6 482 26 386 107 611 434 581
842 -28 380 -243 633 -606 715 -61 14 -146 18 -467 22 l-393 5 0 -807z m831
437 c182 -72 259 -191 267 -414 3 -100 1 -128 -18 -189 -44 -145 -131 -236
-269 -280 -55 -18 -98 -23 -258 -27 l-193 -4 0 472 0 472 208 -4 c185 -4 213
-6 263 -26z"/>
<path d="M6971 4024 c-49 -157 -169 -370 -311 -549 -86 -110 -302 -322 -435
-428 -681 -545 -1598 -914 -2505 -1008 -143 -15 -515 -15 -635 0 -87 11 -91
10 -108 -11 -33 -39 -2 -127 86 -244 127 -168 315 -250 742 -321 90 -15 165
-18 410 -18 320 1 379 6 623 61 871 194 1620 827 1957 1653 110 272 177 556
201 854 4 48 5 87 3 87 -3 0 -15 -34 -28 -76z"/>
<path d="M8906 3974 c-9 -24 -8 -31 10 -48 14 -15 328 -16 3308 -16 2693 0
3295 2 3310 13 11 8 17 23 14 38 l-3 24 -3316 3 c-3018 2 -3317 1 -3323 -14z"/>
<path d="M9985 3232 c-113 -54 -185 -162 -206 -308 -21 -137 21 -296 100 -387
18 -20 63 -51 99 -69 59 -29 76 -33 152 -33 76 0 93 4 152 33 133 65 208 201
208 379 0 179 -66 309 -192 378 -47 26 -65 30 -153 33 -94 3 -104 1 -160 -26z
m202 -107 c108 -32 172 -155 160 -309 -3 -41 -14 -94 -25 -118 -69 -158 -254
-182 -351 -48 -39 54 -55 128 -49 231 9 156 72 234 209 258 3 1 28 -6 56 -14z"/>
<path d="M8246 3235 c-8 -21 -8 -748 0 -769 5 -14 37 -16 249 -16 269 0 255
-4 255 69 0 20 -5 42 -12 49 -8 8 -64 12 -185 12 l-173 0 -2 333 -3 332 -61 3
c-49 2 -63 0 -68 -13z"/>
<path d="M8855 3238 c-3 -7 -4 -186 -3 -398 l3 -385 63 -3 62 -3 -2 398 -3
398 -58 3 c-40 2 -59 -1 -62 -10z"/>
<path d="M9106 3234 c-10 -27 -7 -89 6 -102 8 -8 50 -12 125 -12 l113 0 2
-332 3 -333 59 -3 c41 -2 62 1 67 10 5 7 9 158 9 336 l0 322 113 0 c75 0 117
4 125 12 7 7 12 29 12 49 0 74 22 69 -320 69 -272 0 -309 -2 -314 -16z"/>
<path d="M10635 3238 c-3 -7 -4 -186 -3 -398 l3 -385 60 0 60 0 5 135 5 135
71 3 72 3 73 -138 74 -138 68 -3 c50 -2 69 1 72 11 3 7 -29 74 -70 148 -42 74
-77 137 -78 141 -1 3 17 20 39 36 87 64 121 207 73 312 -26 59 -53 86 -114
118 -48 26 -58 27 -228 30 -141 3 -178 1 -182 -10z m335 -126 c19 -10 43 -34
52 -53 36 -70 12 -157 -52 -191 -26 -13 -57 -18 -122 -18 l-88 0 0 140 0 140
88 0 c65 0 96 -5 122 -18z"/>
<path d="M11497 3218 c-51 -126 -258 -740 -254 -752 8 -20 109 -23 125 -3 5 6
22 51 38 100 l28 87 155 -2 155 -3 31 -95 30 -95 65 0 c58 0 65 2 67 20 1 11
-57 189 -130 395 l-132 375 -82 3 -82 3 -14 -33z m152 -281 c28 -87 51 -160
51 -163 0 -2 -49 -4 -110 -4 -80 0 -110 3 -110 12 0 26 105 327 111 320 4 -4
30 -78 58 -165z"/>
<path d="M12046 3235 c-8 -21 -8 -748 0 -769 5 -14 37 -16 249 -16 269 0 255
-4 255 69 0 20 -5 42 -12 49 -8 8 -64 12 -185 12 l-173 0 -2 333 -3 332 -61 3
c-49 2 -63 0 -68 -13z"/>
<path d="M12895 3237 c-3 -6 -4 -185 -3 -397 l3 -385 249 -3 c193 -2 251 1
258 10 10 17 10 79 0 95 -6 9 -60 13 -192 15 l-185 3 -3 108 -3 107 154 0
c106 0 157 4 165 12 18 18 15 105 -4 112 -9 3 -83 6 -165 6 l-149 0 0 100 0
100 174 0 c145 0 177 3 190 16 18 18 21 66 6 95 -10 18 -24 19 -251 19 -183 0
-241 -3 -244 -13z"/>
<path d="M13697 3244 c-4 -4 -7 -15 -7 -24 0 -8 60 -184 133 -390 l133 -375
81 -3 c56 -2 83 1 90 10 6 7 70 183 143 391 87 249 129 382 123 388 -6 6 -39
9 -74 7 l-64 -3 -106 -320 -105 -320 -105 320 -105 320 -65 3 c-36 2 -68 0
-72 -4z"/>
<path d="M14636 3242 c-16 -27 -267 -757 -264 -770 2 -13 16 -18 56 -20 30 -2
59 1 66 7 6 6 25 51 41 101 l29 90 154 -2 153 -3 32 -95 32 -95 65 0 c58 0 65
2 67 20 1 11 -57 189 -130 395 l-133 375 -81 3 c-45 1 -84 -1 -87 -6z m139
-297 c26 -82 50 -156 52 -162 4 -10 -21 -13 -106 -13 -81 0 -111 3 -111 12 0
26 105 327 111 320 4 -4 28 -74 54 -157z"/>
<path d="M15176 3235 c-8 -21 -8 -748 0 -769 5 -14 37 -16 249 -16 269 0 255
-4 255 69 0 20 -5 42 -12 49 -8 8 -64 12 -185 12 l-173 0 -2 333 -3 332 -61 3
c-49 2 -63 0 -68 -13z"/>
<path d="M15785 3238 c-3 -7 -4 -186 -3 -398 l3 -385 249 -3 c193 -2 251 1
258 10 10 17 10 79 0 95 -6 9 -60 13 -192 15 l-185 3 -3 108 -3 107 154 0
c106 0 157 4 165 12 18 18 15 105 -4 112 -9 3 -83 6 -165 6 l-149 0 0 100 0
100 173 0 c94 0 178 4 185 9 9 5 12 25 10 62 l-3 54 -243 3 c-189 2 -244 0
-247 -10z"/>
</g>
</svg>
